{
    "asset" : {
        "generator" : "Khronos glTF Blender I/O v1.0.5",
        "version" : "2.0"
    },
    "scene" : 0,
    "scenes" : [
        {
            "name" : "Scene",
            "nodes" : [
                0
            ]
        }
    ],
    "nodes" : [
        {
            "mesh" : 0,
            "name" : "11763_earings_v1_L1",
            "rotation" : [
                1,
                0,
                0,
                -1.3435885648505064e-07
            ]
        }
    ],
    "materials" : [
        {
            "doubleSided" : true,
            "name" : "11763_Earings_silver",
            "pbrMetallicRoughness" : {
                "baseColorTexture" : {
                    "index" : 0,
                    "texCoord" : 0
                },
                "metallicFactor" : 0,
                "roughnessFactor" : 0.7418010830879211
            }
        },
        {
            "doubleSided" : true,
            "name" : "11763_Earings_gold",
            "pbrMetallicRoughness" : {
                "baseColorTexture" : {
                    "index" : 1,
                    "texCoord" : 0
                },
                "metallicFactor" : 0,
                "roughnessFactor" : 0.7418010830879211
            }
        },
        {
            "doubleSided" : true,
            "name" : "11763_Earings_gem",
            "pbrMetallicRoughness" : {
                "baseColorTexture" : {
                    "index" : 2,
                    "texCoord" : 0
                },
                "metallicFactor" : 0,
                "roughnessFactor" : 0.7418010830879211
            }
        }
    ],
    "meshes" : [
        {
            "name" : "11763_earings_v1_L1",
            "primitives" : [
                {
                    "attributes" : {
                        "POSITION" : 0,
                        "NORMAL" : 1,
                        "TEXCOORD_0" : 2,
                        "COLOR_0" : 3
                    },
                    "indices" : 4,
                    "material" : 0
                },
                {
                    "attributes" : {
                        "POSITION" : 5,
                        "NORMAL" : 6,
                        "TEXCOORD_0" : 7,
                        "COLOR_0" : 8
                    },
                    "indices" : 9,
                    "material" : 1
                },
                {
                    "attributes" : {
                        "POSITION" : 10,
                        "NORMAL" : 11,
                        "TEXCOORD_0" : 12,
                        "COLOR_0" : 13
                    },
                    "indices" : 14,
                    "material" : 2
                }
            ]
        }
    ],
    "textures" : [
        {
            "source" : 0
        },
        {
            "source" : 0
        },
        {
            "source" : 0
        }
    ],
    "images" : [
        {
            "mimeType" : "image/png",
            "name" : "11763_Earings_refl",
            "uri" : "11763_Earings_refl.png"
        }
    ],
    "accessors" : [
        {
            "bufferView" : 0,
            "componentType" : 5126,
            "count" : 1104,
            "max" : [
                0.2816265821456909,
                0.7256487607955933,
                -0.33405572175979614
            ],
            "min" : [
                -1.5429176092147827,
                -0.05034385994076729,
                -5.296168804168701
            ],
            "type" : "VEC3"
        },
        {
            "bufferView" : 1,
            "componentType" : 5126,
            "count" : 1104,
            "type" : "VEC3"
        },
        {
            "bufferView" : 2,
            "componentType" : 5126,
            "count" : 1104,
            "type" : "VEC2"
        },
        {
            "bufferView" : 3,
            "componentType" : 5126,
            "count" : 1104,
            "type" : "VEC4"
        },
        {
            "bufferView" : 4,
            "componentType" : 5123,
            "count" : 1986,
            "type" : "SCALAR"
        },
        {
            "bufferView" : 5,
            "componentType" : 5126,
            "count" : 8268,
            "max" : [
                0.5857449173927307,
                0.7958402633666992,
                -0.22967977821826935
            ],
            "min" : [
                -1.847272515296936,
                -0.11018557101488113,
                -7.825789451599121
            ],
            "type" : "VEC3"
        },
        {
            "bufferView" : 6,
            "componentType" : 5126,
            "count" : 8268,
            "type" : "VEC3"
        },
        {
            "bufferView" : 7,
            "componentType" : 5126,
            "count" : 8268,
            "type" : "VEC2"
        },
        {
            "bufferView" : 8,
            "componentType" : 5126,
            "count" : 8268,
            "type" : "VEC4"
        },
        {
            "bufferView" : 9,
            "componentType" : 5123,
            "count" : 17931,
            "type" : "SCALAR"
        },
        {
            "bufferView" : 10,
            "componentType" : 5126,
            "count" : 110,
            "max" : [
                0.038585882633924484,
                0.7469472885131836,
                -0.7260993123054504
            ],
            "min" : [
                -1.3020538091659546,
                -0.001163268811069429,
                -5.260714530944824
            ],
            "type" : "VEC3"
        },
        {
            "bufferView" : 11,
            "componentType" : 5126,
            "count" : 110,
            "type" : "VEC3"
        },
        {
            "bufferView" : 12,
            "componentType" : 5126,
            "count" : 110,
            "type" : "VEC2"
        },
        {
            "bufferView" : 13,
            "componentType" : 5126,
            "count" : 110,
            "type" : "VEC4"
        },
        {
            "bufferView" : 14,
            "componentType" : 5123,
            "count" : 300,
            "type" : "SCALAR"
        }
    ],
    "bufferViews" : [
        {
            "buffer" : 0,
            "byteLength" : 13248,
            "byteOffset" : 0
        },
        {
            "buffer" : 0,
            "byteLength" : 13248,
            "byteOffset" : 13248
        },
        {
            "buffer" : 0,
            "byteLength" : 8832,
            "byteOffset" : 26496
        },
        {
            "buffer" : 0,
            "byteLength" : 17664,
            "byteOffset" : 35328
        },
        {
            "buffer" : 0,
            "byteLength" : 3972,
            "byteOffset" : 52992
        },
        {
            "buffer" : 0,
            "byteLength" : 99216,
            "byteOffset" : 56964
        },
        {
            "buffer" : 0,
            "byteLength" : 99216,
            "byteOffset" : 156180
        },
        {
            "buffer" : 0,
            "byteLength" : 66144,
            "byteOffset" : 255396
        },
        {
            "buffer" : 0,
            "byteLength" : 132288,
            "byteOffset" : 321540
        },
        {
            "buffer" : 0,
            "byteLength" : 35862,
            "byteOffset" : 453828
        },
        {
            "buffer" : 0,
            "byteLength" : 1320,
            "byteOffset" : 489692
        },
        {
            "buffer" : 0,
            "byteLength" : 1320,
            "byteOffset" : 491012
        },
        {
            "buffer" : 0,
            "byteLength" : 880,
            "byteOffset" : 492332
        },
        {
            "buffer" : 0,
            "byteLength" : 1760,
            "byteOffset" : 493212
        },
        {
            "buffer" : 0,
            "byteLength" : 600,
            "byteOffset" : 494972
        }
    ],
    "buffers" : [
        {
            "byteLength" : 495572,
            "uri" : "untitled.bin"
        }
    ]
}
